<svg width="140" height="78" viewBox="0 0 140 78" fill="none" xmlns="http://www.w3.org/2000/svg">
<path d="M36.4673 37.1173C45.1378 26.8553 58.071 20.3478 72.5046 20.3478C98.5983 20.3478 119.751 41.6046 119.751 67.8261C119.751 73.445 124.284 78 129.876 78C135.467 78 140 73.445 140 67.8261C140 30.3668 109.781 0 72.5046 0C52.6347 0 34.7807 8.6248 22.4337 22.3454L20.0965 9.02549C19.1256 3.49196 13.8745 -0.202887 8.36794 0.772824C2.86138 1.74854 -0.815451 7.02532 0.155504 12.5589L7.18778 52.6362C7.65405 55.2935 9.15168 57.6559 11.3512 59.2035C14.0729 61.1186 17.655 61.5427 20.704 60.5722L58.7984 53.8222C64.3049 52.8465 67.9817 47.5697 67.0108 42.0362C66.0398 36.5026 60.7888 32.8078 55.2822 33.7835L36.4673 37.1173Z" 
fill="black"/>
</svg>
