<svg width="140" height="78" viewBox="0 0 140 78" fill="none" xmlns="http://www.w3.org/2000/svg">
<path d="M103.533 37.1173C94.8623 26.8553 81.929 20.3478 67.4954 20.3478C41.4017 20.3478 20.2486 41.6046 20.2486 67.8261C20.2486 73.445 15.7158 78 10.1243 78C4.53281 78 0 73.445 0 67.8261C0 30.3668 30.2187 0 67.4954 0C87.3653 0 105.219 8.6248 117.566 22.3454L119.904 9.02549C120.874 3.49196 126.126 -0.202887 131.632 0.772824C137.139 1.74854 140.815 7.02532 139.844 12.5589L132.812 52.6362C132.346 55.2935 130.848 57.6559 128.649 59.2035C125.927 61.1187 122.345 61.5427 119.296 60.5722L81.2017 53.8222C75.6951 52.8465 72.0183 47.5697 72.9892 42.0362C73.9602 36.5026 79.2112 32.8078 84.7178 33.7835L103.533 37.1173Z" fill="black"/>
</svg>
