<svg width="18" height="19" viewBox="0 0 18 19" fill="none" xmlns="http://www.w3.org/2000/svg">
<path fill-rule="evenodd" clip-rule="evenodd" d="M7.8 0.65C8.51111 0.116667 9.48889 0.116667 10.2 0.65L17.2 5.9C17.7036 6.27771 18 6.87049 18 7.5V17C18 18.1046 17.1046 19 16 19H11.1C10.4925 19 10 18.5075 10 17.9V12C10 11.4477 9.55228 11 9 11C8.44772 11 8 11.4477 8 12V17.9C8 18.5075 7.50751 19 6.9 19H2C0.895431 19 0 18.1046 0 17V7.5C0 6.87049 0.296388 6.27771 0.8 5.9L7.8 0.65ZM9 2.25L2 7.5V17H6V12C6 10.3431 7.34315 9 9 9C10.6569 9 12 10.3431 12 12V17H16V7.5L9 2.25Z" fill="black"/>
</svg>
