<svg width="87" height="68" viewBox="0 0 87 68" fill="none" xmlns="http://www.w3.org/2000/svg">
<path fill-rule="evenodd" clip-rule="evenodd" d="M0.368056 2.99839C1.11616 1.1834 2.87857 0 4.83347 0H53.1667C71.8523 0 87 15.2223 87 34C87 52.7777 71.8523 68 53.1667 68H9.66679C6.99742 68 4.83347 65.8254 4.83347 63.1429C4.83347 60.4603 6.99742 58.2857 9.66679 58.2857H53.1667C66.5136 58.2857 77.3334 47.4126 77.3334 34C77.3334 20.5874 66.5136 9.71429 53.1667 9.71429H16.5021L25.1678 18.4226C27.0553 20.3195 27.0553 23.3948 25.1678 25.2917C23.2803 27.1885 20.22 27.1885 18.3324 25.2917L1.41579 8.29166C0.0334681 6.90253 -0.380051 4.81338 0.368056 2.99839Z" fill="black"/>
</svg>
